<?xml version="1.0" encoding="UTF-8"?>
<!DOCTYPE svg PUBLIC "-//W3C//DTD SVG 1.1//EN" "http://www.w3.org/Graphics/SVG/1.1/DTD/svg11.dtd">
<svg xmlns="http://www.w3.org/2000/svg" xmlns:xlink="http://www.w3.org/1999/xlink" version="1.1" width="304px" height="304px" viewBox="-0.5 -0.5 304 304"><defs><linearGradient x1="0%" y1="0%" x2="100%" y2="0%" id="mx-gradient-009eff-1-2552cd-1-e-0"><stop offset="0%" style="stop-color:#009EFF"/><stop offset="100%" style="stop-color:#2552CD"/></linearGradient><linearGradient x1="0%" y1="0%" x2="100%" y2="0%" id="mx-gradient-fb5b8d-1-ff896c-1-e-0"><stop offset="0%" style="stop-color:#FB5B8D"/><stop offset="100%" style="stop-color:#FF896C"/></linearGradient><linearGradient x1="0%" y1="0%" x2="100%" y2="0%" id="mx-gradient-0ec23e-1-00a886-1-e-0"><stop offset="0%" style="stop-color:#0EC23E"/><stop offset="100%" style="stop-color:#00A886"/></linearGradient></defs><g><path d="M 100 200 Q 100 200 220 80" fill="none" stroke="#000000" stroke-width="8" stroke-miterlimit="10" pointer-events="stroke" transform="translate(2,3)" opacity="0.25"/><path d="M 100 200 Q 100 200 220 80" fill="none" stroke="#ffd966" stroke-width="8" stroke-miterlimit="10" pointer-events="stroke"/><path d="M 220 185 L 100 200" fill="none" stroke="#000000" stroke-width="8" stroke-miterlimit="10" pointer-events="stroke" transform="translate(2,3)" opacity="0.25"/><path d="M 220 185 L 100 200" fill="none" stroke="#f9f871" stroke-width="8" stroke-miterlimit="10" pointer-events="stroke"/><path d="M 115 80 L 101.24 190.08 Q 100 200 92.93 207.07 L 27.07 272.93 Q 20 280 27.07 272.93 L 100 200" fill="none" stroke="#000000" stroke-width="8" stroke-miterlimit="10" pointer-events="stroke" transform="translate(2,3)" opacity="0.25"/><path d="M 115 80 L 101.24 190.08 Q 100 200 92.93 207.07 L 27.07 272.93 Q 20 280 27.07 272.93 L 100 200" fill="none" stroke="#f9f871" stroke-width="8" stroke-miterlimit="10" pointer-events="stroke"/><path d="M 20 280 Q 20 280 220 80" fill="none" stroke="#f9f871" stroke-width="8" stroke-miterlimit="10" pointer-events="stroke"/><path d="M 220 0 L 280 0 L 300 20 L 300 80 L 240 80 L 220 60 L 220 0 Z" fill="#000000" stroke="none" transform="translate(2,3)rotate(-90,260,40)" pointer-events="all" opacity="0.25"/><path d="M 220 0 L 280 0 L 300 20 L 300 80 L 240 80 L 220 60 L 220 0 Z" fill="url(#mx-gradient-009eff-1-2552cd-1-e-0)" stroke="none" transform="rotate(-90,260,40)" pointer-events="all"/><path d="M 220 0 L 280 0 L 300 20 L 240 20 Z" fill-opacity="0.05" fill="#000000" stroke="none" transform="rotate(-90,260,40)" pointer-events="all"/><path d="M 220 0 L 240 20 L 240 80 L 220 60 Z" fill-opacity="0.1" fill="#000000" stroke="none" transform="rotate(-90,260,40)" pointer-events="all"/><path d="M 240 80 L 240 20 L 220 0 M 240 20 L 300 20" fill="none" stroke="none" transform="rotate(-90,260,40)" pointer-events="all"/><path d="M 150 0 L 210 0 L 230 20 L 230 80 L 170 80 L 150 60 L 150 0 Z" fill="#000000" stroke="none" transform="translate(2,3)rotate(-90,190,40)" pointer-events="all" opacity="0.25"/><path d="M 150 0 L 210 0 L 230 20 L 230 80 L 170 80 L 150 60 L 150 0 Z" fill="url(#mx-gradient-009eff-1-2552cd-1-e-0)" stroke="none" transform="rotate(-90,190,40)" pointer-events="all"/><path d="M 150 0 L 210 0 L 230 20 L 170 20 Z" fill-opacity="0.05" fill="#000000" stroke="none" transform="rotate(-90,190,40)" pointer-events="all"/><path d="M 150 0 L 170 20 L 170 80 L 150 60 Z" fill-opacity="0.1" fill="#000000" stroke="none" transform="rotate(-90,190,40)" pointer-events="all"/><path d="M 170 80 L 170 20 L 150 0 M 170 20 L 230 20" fill="none" stroke="none" transform="rotate(-90,190,40)" pointer-events="all"/><path d="M 80 0 L 140 0 L 160 20 L 160 80 L 100 80 L 80 60 L 80 0 Z" fill="#000000" stroke="none" transform="translate(2,3)rotate(-90,120,40)" pointer-events="all" opacity="0.25"/><path d="M 80 0 L 140 0 L 160 20 L 160 80 L 100 80 L 80 60 L 80 0 Z" fill="url(#mx-gradient-009eff-1-2552cd-1-e-0)" stroke="none" transform="rotate(-90,120,40)" pointer-events="all"/><path d="M 80 0 L 140 0 L 160 20 L 100 20 Z" fill-opacity="0.05" fill="#000000" stroke="none" transform="rotate(-90,120,40)" pointer-events="all"/><path d="M 80 0 L 100 20 L 100 80 L 80 60 Z" fill-opacity="0.1" fill="#000000" stroke="none" transform="rotate(-90,120,40)" pointer-events="all"/><path d="M 100 80 L 100 20 L 80 0 M 100 20 L 160 20" fill="none" stroke="none" transform="rotate(-90,120,40)" pointer-events="all"/><path d="M 220 70 L 280 70 L 300 90 L 300 150 L 240 150 L 220 130 L 220 70 Z" fill="#000000" stroke="none" transform="translate(2,3)rotate(-90,260,110)" pointer-events="all" opacity="0.25"/><path d="M 220 70 L 280 70 L 300 90 L 300 150 L 240 150 L 220 130 L 220 70 Z" fill="url(#mx-gradient-009eff-1-2552cd-1-e-0)" stroke="none" transform="rotate(-90,260,110)" pointer-events="all"/><path d="M 220 70 L 280 70 L 300 90 L 240 90 Z" fill-opacity="0.05" fill="#000000" stroke="none" transform="rotate(-90,260,110)" pointer-events="all"/><path d="M 220 70 L 240 90 L 240 150 L 220 130 Z" fill-opacity="0.1" fill="#000000" stroke="none" transform="rotate(-90,260,110)" pointer-events="all"/><path d="M 240 150 L 240 90 L 220 70 M 240 90 L 300 90" fill="none" stroke="none" transform="rotate(-90,260,110)" pointer-events="all"/><path d="M 220 140 L 280 140 L 300 160 L 300 220 L 240 220 L 220 200 L 220 140 Z" fill="#000000" stroke="none" transform="translate(2,3)rotate(-90,260,180)" pointer-events="all" opacity="0.25"/><path d="M 220 140 L 280 140 L 300 160 L 300 220 L 240 220 L 220 200 L 220 140 Z" fill="url(#mx-gradient-009eff-1-2552cd-1-e-0)" stroke="none" transform="rotate(-90,260,180)" pointer-events="all"/><path d="M 220 140 L 280 140 L 300 160 L 240 160 Z" fill-opacity="0.05" fill="#000000" stroke="none" transform="rotate(-90,260,180)" pointer-events="all"/><path d="M 220 140 L 240 160 L 240 220 L 220 200 Z" fill-opacity="0.1" fill="#000000" stroke="none" transform="rotate(-90,260,180)" pointer-events="all"/><path d="M 240 220 L 240 160 L 220 140 M 240 160 L 300 160" fill="none" stroke="none" transform="rotate(-90,260,180)" pointer-events="all"/><path d="M 150 70 L 210 70 L 230 90 L 230 150 L 170 150 L 150 130 L 150 70 Z" fill="#000000" stroke="none" transform="translate(2,3)rotate(-90,190,110)" pointer-events="all" opacity="0.25"/><path d="M 150 70 L 210 70 L 230 90 L 230 150 L 170 150 L 150 130 L 150 70 Z" fill="url(#mx-gradient-fb5b8d-1-ff896c-1-e-0)" stroke="none" transform="rotate(-90,190,110)" pointer-events="all"/><path d="M 150 70 L 210 70 L 230 90 L 170 90 Z" fill-opacity="0.05" fill="#000000" stroke="none" transform="rotate(-90,190,110)" pointer-events="all"/><path d="M 150 70 L 170 90 L 170 150 L 150 130 Z" fill-opacity="0.1" fill="#000000" stroke="none" transform="rotate(-90,190,110)" pointer-events="all"/><path d="M 170 150 L 170 90 L 150 70 M 170 90 L 230 90" fill="none" stroke="none" transform="rotate(-90,190,110)" pointer-events="all"/><ellipse cx="40" cy="260" rx="40" ry="40" fill="#000000" stroke="none" transform="translate(2,3)rotate(-180,40,260)" pointer-events="all" opacity="0.25"/><ellipse cx="40" cy="260" rx="40" ry="40" fill="url(#mx-gradient-0ec23e-1-00a886-1-e-0)" stroke="none" transform="rotate(-180,40,260)" pointer-events="all"/></g></svg>